<svg xmlns="http://www.w3.org/2000/svg" width="81" height="37" fill="none"><path fill="#E1251B" d="M56.7411 28.6456h-29.444l-.2123-1.1325c-.0708-.3539-1.4864-8.2811-9.2013-8.3519h-.3539c-7.2194 0-9.20123 6.2994-9.27201 6.5117l-.28312 1.0617-1.06168-.0708c-3.39739-.2831-5.44997-1.1325-6.29932-2.548-.424673-.7078-.424673-1.3448-.353894-1.8403v-9.909c0-1.8403.70779-2.83118 1.344804-3.39741 1.27401-1.06168 2.83115-.99091 3.3266-.99091H25.1029c1.0617 0 2.4773-1.69869 3.6805-4.38828C29.9867.829525 32.3932.404849 33.5964.546407h13.9434c4.4591 0 7.7149 2.760373 10.1214 4.812963.4955.42467.9909.84934 1.4156 1.13246 1.7695 1.27402 3.3974 2.26492 4.1052 2.61882 1.5571 0 8.2811.14155 12.457.14155 2.1234 0 3.6805.56624 4.6007 1.7695.9201 1.2032.7785 2.4772.7078 2.9727v12.0324c-.0708.637-.3539 2.3357-1.7695 2.4772-.9909.0708-1.8403-.7077-2.4065-2.3357l-.0708-.2123c-.0708-.2831-1.274-6.8655-8.5642-6.8655-8.2104 0-9.9091 8.2103-9.9798 8.5642l-.2124 1.0617-1.2032-.0708zM29.562 25.956h26.1174c1.1325-3.822 4.7422-9.6259 12.3155-9.6259 5.5208 0 8.635 3.0435 10.1214 5.9454v-8.5642l.0708-.1416s.0708-.4954-.2124-.9201c-.3539-.4247-1.2032-.7078-2.4064-.7078-4.7422 0-12.7402-.1416-12.811-.1416h-.3539l-.2831-.1415c-.0708-.0708-2.3357-1.2033-4.7422-3.04351-.4955-.35389-.9909-.77856-1.4864-1.27401-2.1941-1.84025-4.8837-4.17596-8.3519-4.17596H33.1717c-.2123 0-1.3448-.14155-1.9818 1.41558-1.2032 2.76038-3.2558 6.0162-6.087 6.0162H4.71865c-.21234 0-.92013 0-1.27403.3539-.28311.2831-.42467.7078-.42467 1.3448v10.4045c.14156.1415.77857.7786 3.18505 1.1324 1.3448-3.1142 5.0253-7.5733 11.8908-7.361 7.1487.0708 10.4753 5.7331 11.4662 9.4844z"/><path fill="#10CFC9" d="M17.3172 36.6436c-4.3882 0-7.92719-3.5389-7.92719-7.9272s3.53899-7.9272 7.92719-7.9272c4.3883 0 7.9273 3.5389 7.9273 7.9272s-3.539 7.9272-7.9273 7.9272zm0-13.094c-2.9019 0-5.2376 2.3357-5.2376 5.2376 0 2.9019 2.3357 5.2376 5.2376 5.2376 2.902 0 5.2377-2.3357 5.2377-5.2376 0-2.9019-2.3357-5.2376-5.2377-5.2376zM67.9241 36.6436c-4.3883 0-7.9273-3.5389-7.9273-7.9272s3.539-7.9272 7.9273-7.9272c4.3882 0 7.9272 3.5389 7.9272 7.9272s-3.539 7.9272-7.9272 7.9272zm0-13.094c-2.902 0-5.2377 2.3357-5.2377 5.2376 0 2.9019 2.3357 5.2376 5.2377 5.2376 2.9019 0 5.2376-2.3357 5.2376-5.2376 0-2.9019-2.3357-5.2376-5.2376-5.2376z"/></svg>