<svg xmlns="http://www.w3.org/2000/svg" width="62" height="28" fill="none"><path fill="#10CFC9" d="M49.9677 27.8015c-2.4775 0-4.4502-2.0186-4.4502-4.4502 0-2.4774 2.0186-4.4502 4.4502-4.4502 2.4774 0 4.4502 2.0187 4.4502 4.4502 0 2.4775-1.9728 4.4502-4.4502 4.4502zm0-7.157c-1.514 0-2.7069 1.1928-2.7069 2.7068 0 1.514 1.1929 2.7069 2.7069 2.7069s2.7068-1.1929 2.7068-2.7069c0-1.4681-1.1928-2.7068-2.7068-2.7068z"/><path fill="#E1251B" d="M16.3846 24.2231c-.2294 0-.4588-.0917-.5964-.2752-.1835-.1836-.2753-.3671-.2753-.5965 0-3.2115-2.615-5.8265-5.82652-5.8265-2.79858 0-5.18426 1.9727-5.7348 4.6796-.04588.3211-.27527.5505-.55054.6423-.27527.0917-.59642.0458-.87169-.1835-.91757-.78-2.431557-2.4775-2.202165-4.8632.229392-2.4315 1.101085-3.7161 1.513985-4.2208.18352-1.0093.77994-3.5785 2.47744-4.22079.68817-.77993 3.30324-3.71615 5.00075-5.36777l-.59643-.45878c-.32114-.2294-.64229-.68818-.55054-1.19284.09176-.55054.50467-.91757 1.2846-1.10108C10.971.82513 17.5775-.230074 27.3496.0451968 36.0206.274589 41.2049 3.66959 44.9669 6.14703c.7799.50466 1.514.96344 2.1563 1.37635.0458 0 .0458.04588.0917.04588.6882.50466 2.0646.96344 3.9914 1.28459l.1836.04588c1.4681.22939 5.9183.91757 7.6617 3.76207.6881.2752 1.9727 1.101 2.248 3.4867.0459.367.0918.78.1376 1.1929.4129 3.1197.7341 5.8265-.9175 6.4229-.3212.0918-.9635.2294-3.8079.3212-.2294 0-.4588-.0918-.6423-.2294-.1836-.1376-.2753-.367-.2753-.5964-.0918-3.1656-2.661-5.6889-5.8266-5.6889-3.2115 0-5.8265 2.615-5.8265 5.8265 0 .4588-.4129.8717-.8717.8717h-.78c-2.3397-.0918-16.6079-.0459-26.1048-.0459zm-6.7441-8.4416c3.8997 0 7.1112 2.9362 7.5241 6.6982 9.4509 0 22.8933-.0458 25.2331-.0458.4588-3.7621 3.6703-6.6983 7.524-6.6983 3.8538 0 6.9736 2.7986 7.5241 6.4689 1.6058-.0459 2.2022-.1377 2.3857-.1835.3211-.5965 0-3.1657-.1835-4.542l-.1377-1.2387c-.2293-1.881-1.1928-2.1104-1.2387-2.1104-.2752-.0459-.5046-.2294-.6423-.4588-.7799-1.5599-3.028-2.6151-6.5606-3.1656l-.1835-.0459c-2.2022-.367-3.762-.87169-4.7255-1.55987-.6882-.41291-1.4222-.91757-2.2021-1.42223-3.808-2.52331-8.5334-5.59717-16.6998-5.82656-8.5334-.22939-14.4976.55054-16.7456 1.00933l.6423.55054c.1835.18351.3211.4129.3211.68817 0 .27527-.1376.50467-.3211.68818C9.54875 5.91763 5.46557 10.6431 5.41969 10.689c-.13764.1376-.27527.2294-.50466.2753-.68818.1376-1.2846 1.881-1.46811 3.1197-.04588.1835-.13764.367-.27527.5047 0 0-.96345.9634-1.19284 3.3491-.09176.9175.22939 1.7434.6423 2.3398 1.23871-2.661 3.99142-4.4961 7.01939-4.4961z"/><path fill="#10CFC9" d="M9.64051 27.8015c-2.47743 0-4.4502-2.0186-4.4502-4.4502 0-2.4774 2.01865-4.4502 4.4502-4.4502 2.43159 0 4.45019 2.0187 4.45019 4.4502 0 2.4775-1.9728 4.4502-4.45019 4.4502zm0-7.157c-1.51398 0-2.70682 1.1928-2.70682 2.7068 0 1.514 1.19284 2.7069 2.70682 2.7069 1.51399 0 2.70679-1.1929 2.70679-2.7069 0-1.4681-1.1928-2.7068-2.70679-2.7068z"/></svg>