<svg xmlns="http://www.w3.org/2000/svg" width="79" height="28" fill="none"><path fill="#E1251B" d="M76.4268 23.4737H63.1135c-.5594 0-1.0628-.5034-1.0628-1.0628v-.0559c0-3.7479-3.0207-6.7685-6.7685-6.7685-3.7479 0-6.7685 3.0206-6.7685 6.7685 0 .2797-.1119.5594-.3356.7272-.2238.2237-.4475.3356-.7272.3356-8.2229 0-16.8933-.0559-24.1653-.0559-.5594 0-1.0628-.4475-1.0628-1.0629-.0559-3.6919-3.0766-6.7125-6.7685-6.7125-3.6919 0-6.7685 3.0206-6.7685 6.7125 0 .5594-.44751 1.0629-1.06283 1.0629H6.7839c-.22375.0559-.50344 0-.67125-.1679-.22376-.1118-5.425995-3.3003-5.314118-7.2719C.85447 13.9083 2.30886 5.68543 4.88201 5.68543c1.39845 0 10.68419-.39156 17.73239-2.23752 7.216-1.90189 21.2005-2.23752 27.1299.05594 5.0344 1.95783 9.7892 4.02754 10.6283 4.36317 1.9018.27969 18.4595 3.13248 18.6273 11.63508v.951c0 .2237 0 1.3984-.7831 2.2375-.2797.3916-.8391.7831-1.79.7831zm-12.2505-2.1816h12.3064c.2238 0 .2797-.0559.2797-.0559.1678-.1678.1678-.5594.1678-.6712v-1.0069c-.1119-5.8735-12.2504-8.8942-16.9492-9.56544-.1119 0-.1678-.05594-.2797-.05594-.0559 0-5.1463-2.29346-10.6282-4.4191-5.0904-1.95783-18.3477-1.9019-25.8434.05594C16.2374 7.41951 7.39922 7.86702 5.21764 7.86702c-.7272.83907-2.12565 5.14628-2.23752 8.16698-.05594 1.9578 2.34939 4.0275 3.74784 5.0344.61532-4.3072 4.36314-7.6076 8.78224-7.6076 4.531 0 8.2789 3.4122 8.8382 7.7754 6.7126 0 14.5999 0 22.1515.0559.5594-4.4191 4.3072-7.8313 8.8382-7.8313 4.531 0 8.3348 3.4122 8.8382 7.8313z"/><path fill="#10CFC9" d="M15.5102 27.7811c-3.0206 0-5.426-2.4613-5.426-5.426 0-3.0207 2.4613-5.426 5.426-5.426s5.426 2.4613 5.426 5.426-2.4053 5.426-5.426 5.426zm0-8.7264c-1.8459 0-3.3003 1.4544-3.3003 3.3004 0 1.8459 1.4544 3.3003 3.3003 3.3003 1.846 0 3.3004-1.4544 3.3004-3.3003 0-1.846-1.4544-3.3004-3.3004-3.3004zM55.3382 27.7811c-3.0206 0-5.426-2.4613-5.426-5.426 0-3.0207 2.4613-5.426 5.426-5.426s5.426 2.4613 5.426 5.426-2.4613 5.426-5.426 5.426zm0-8.7264c-1.8459 0-3.3003 1.4544-3.3003 3.3004 0 1.8459 1.4544 3.3003 3.3003 3.3003 1.846 0 3.3004-1.4544 3.3004-3.3003 0-1.846-1.5104-3.3004-3.3004-3.3004z"/><path fill="#E1251B" fill-rule="evenodd" d="M9.69266 3.95145l.61534 1.73408c.1678.55938-.1119 1.1747-.67128 1.39845-.55938.16781-1.1747-.11188-1.39845-.67126l-.61532-1.79001c-.16781-.55938.11188-1.1747.67126-1.39845.61532-.16782 1.23064.16781 1.39845.72719z" clip-rule="evenodd"/><path fill="#10CFC9" fill-rule="evenodd" d="M10.9234 2.72086H5.66518c-.50344 0-.95095-.4475-.95095-.95094 0-.50345.44751-.95095.95095-.95095h5.25822c.5034 0 .9509.4475.9509.95095 0 .55938-.4475.95094-.9509.95094z" clip-rule="evenodd"/></svg>