<svg xmlns="http://www.w3.org/2000/svg" width="69" height="37" fill="none"><path fill="#10CFC9" d="M51.6547 36.878c-3.1714 0-5.729-2.5576-5.729-5.7291 0-3.1714 2.5576-5.729 5.729-5.729s5.729 2.5576 5.729 5.729c0 3.1203-2.5576 5.7291-5.729 5.7291zm0-9.5143c-2.0973 0-3.7853 1.688-3.7853 3.7852 0 2.0973 1.688 3.7853 3.7853 3.7853 2.0972 0 3.7852-1.688 3.7852-3.7853 0-2.0972-1.688-3.7852-3.7852-3.7852zM13.0861 36.878c-3.17145 0-5.72904-2.5576-5.72904-5.7291 0-3.1714 2.55759-5.729 5.72904-5.729 3.1714 0 5.729 2.5576 5.729 5.729-.0512 3.1203-2.6088 5.7291-5.729 5.7291zm0-9.5143c-2.0973 0-3.78527 1.688-3.78527 3.7852 0 2.0973 1.68797 3.7853 3.78527 3.7853 2.0972 0 3.7852-1.688 3.7852-3.7853-.0511-2.0972-1.7392-3.7852-3.7852-3.7852z"/><path fill="#E1251B" d="M63.8289 31.0978c-.3069 0-.5115 0-.6138-.0512h-3.8364c-.5115 0-.9719-.4092-.9719-.9719-.0512-3.3248-3.1714-6.2405-6.7009-6.2405-3.5295 0-6.7009 2.9157-6.7009 6.2405 0 .5116-.4604.9719-.9719.9719H21.0147c-.5115 0-.9719-.4092-.9719-.9719-.0511-3.4783-3.0179-6.2405-6.7009-6.2405-4.09212 0-7.11008 2.6087-7.11008 6.2405 0 .5116-.46037.9719-.97189.9719h-.2046c-1.38111 0-2.4553-.4092-3.22258-1.2788C.605106 28.3867.70741 26.4941.70741 26.1872c.051152-.9719.66498-17.34052 1.2788-21.17691C2.70234.662372 6.48758.713524 7.1014.713524c1.63686 0 31.2538-.255759 37.034 0C47.358.86698 49.1483 3.88494 51.0921 7.10752c2.0972 3.52948 4.5013 7.51938 9.1562 8.84928 8.5935 2.353 8.7981 6.0359 8.7469 6.7009v2.8645c0 1.9438-.5626 3.4272-1.688 4.3479-1.3299 1.0742-2.6599 1.2277-3.4783 1.2277zm-3.5806-1.995h3.1714s1.4834.2047 2.4553-.6138c.665-.5626 1.023-1.5345 1.023-2.8645v-2.9156-.1023c0-.2558-.358-2.8134-7.3147-4.7572-5.371-1.5345-8.082-6.0871-10.2815-9.71884-1.7904-3.01797-3.2226-5.37096-5.371-5.47326-5.729-.25576-36.62479 0-36.9317 0h-.10231c-.40921-.05115-2.60874-.10231-3.06911 2.6599-.61382 3.73409-1.2788 20.7677-1.2788 20.9211v.0512s-.1023 1.3299.61382 2.1484c.25576.3069.66498.5115 1.12535.5626.56267-4.1433 4.24561-7.1612 9.00275-7.1612 4.4502 0 8.082 3.0691 8.5935 7.2124h21.2281c.5626-3.9899 4.2967-7.2124 8.5935-7.2124 4.2456.0511 7.9797 3.2737 8.5424 7.2635z"/></svg>