<svg xmlns="http://www.w3.org/2000/svg" width="75" height="36" fill="none"><path fill="#10CFC9" d="M13.1915 35.8099c-4.3547 0-7.86655-3.5119-7.86655-7.8666s3.51185-7.8665 7.86655-7.8665 7.8665 3.5118 7.8665 7.8665-3.5821 7.8666-7.8665 7.8666zm0-13.0641c-2.8797 0-5.19754 2.3178-5.19754 5.1975 0 2.8797 2.31784 5.1976 5.19754 5.1976s5.1975-2.3179 5.1975-5.1976c0-2.8797-2.388-5.1975-5.1975-5.1975zM59.337 35.8099c-4.3547 0-7.8665-3.5119-7.8665-7.8666s3.5118-7.8665 7.8665-7.8665 7.8665 3.5118 7.8665 7.8665-3.5118 7.8666-7.8665 7.8666zm0-13.0641c-2.8797 0-5.1975 2.3178-5.1975 5.1975 0 2.8797 2.3178 5.1976 5.1975 5.1976 2.8797 0 5.1975-2.3179 5.1975-5.1976 0-2.8797-2.3178-5.1975-5.1975-5.1975z"/><path fill="#E1251B" d="M48.8719 28.2946H23.6568c-.3512 0-.7024-.1405-.9833-.4214-.0702-.0703-.1405-.1405-.1405-.2107-.2107-.281-.3512-.6322-.3512-.9131 0-4.425-4.144-8.3582-8.9201-8.3582-4.49514 0-8.56888 3.5118-8.92006 7.6558-.07024.5619-.42143.9833-.91308 1.1238-.49166.1405-1.05356 0-1.40474-.3512-.77261-.8428-1.123796-1.8964-1.123796-3.2309v-8.6391-.2107c.070237-.3512.632136-3.3012 4.495166-7.44517 3.2309-3.44161 5.33801-4.91659 5.97011-5.33801.5619-.56189 1.9667-1.474974 5.338-1.474974H40.303c.6321-.070237 3.3713-.140474 6.0403 2.528534 2.4583 2.45829 7.3047 6.60227 7.3749 6.60227.0703.07024.1405.14048.2107.28095 0 0 .6322.8428 2.3881.8428h.3512c2.8095 0 11.3081-.0702 15.7331 4.2845C74.1572 16.7757 75 18.9531 75 21.5518c0 3.0202-.913 6.6023-5.057 6.6725H69.5918c-.3512 0-.7024-.1404-.9833-.4214-.281-.2809-.4215-.6321-.3512-.9833v-.1405c0-4.4951-4.2142-8.3582-8.9903-8.3582-5.1976 0-8.9201 3.5119-8.9201 8.3582.0702.9131-.5619 1.6155-1.475 1.6155zm-24.0913-2.7393h22.9675c.5619-5.7594 5.338-9.9736 11.5189-9.9736 5.8999 0 10.8867 4.3547 11.5891 9.7629.7726-.2809 1.4749-1.194 1.4749-3.863 0-1.8964-.6321-3.4416-1.8261-4.6356-2.3881-2.3881-7.0237-3.5821-13.8367-3.5119h-.3512c-2.7392 0-4.0737-1.2643-4.4952-1.7559-.7023-.6321-5.057-4.28447-7.4451-6.67252-1.9666-1.96664-3.7928-1.75593-3.863-1.75593H16.7033c-2.3178 0-3.2309.5619-3.4416.70237-.0702.21071-.1404.21071-.3512.28095 0 0-2.0368 1.26426-5.54867 4.98682-3.02019 3.16071-3.65233 5.47851-3.7928 5.89991v5.5487c2.10711-3.0202 5.75943-4.9868 9.69267-4.9868 5.8999.0702 10.8868 4.4952 11.5189 9.9736z"/></svg>