<svg xmlns="http://www.w3.org/2000/svg" width="80" height="29" fill="none"><path fill="#10CFC9" d="M19.1732 29c-3.2355 0-5.8119-2.6363-5.8119-5.8118 0-3.2355 2.6363-5.8119 5.8119-5.8119 3.2354 0 5.8118 2.6363 5.8118 5.8119 0 3.1755-2.6363 5.8118-5.8118 5.8118zm0-9.3469c-1.9773 0-3.5351 1.5578-3.5351 3.5351 0 1.9772 1.5578 3.535 3.5351 3.535 1.9772 0 3.535-1.5578 3.535-3.535 0-1.9773-1.6177-3.5351-3.535-3.5351zM61.4737 29c-3.2355 0-5.8118-2.6363-5.8118-5.8118 0-3.2355 2.6363-5.8119 5.8118-5.8119 3.2354 0 5.8118 2.6363 5.8118 5.8119 0 3.1755-2.6363 5.8118-5.8118 5.8118zm0-9.3469c-1.9772 0-3.535 1.5578-3.535 3.5351 0 1.9772 1.5578 3.535 3.535 3.535s3.535-1.5578 3.535-3.535c0-1.9773-1.5578-3.5351-3.535-3.5351z"/><path fill="#E1251B" d="M78.25 24.027h-8.568c-.659 0-1.1384-.5392-1.1384-1.1384v-.0599c0-3.9544-3.2354-7.1899-7.1899-7.1899-3.9544 0-7.1898 3.2355-7.1898 7.1899v.0599c0 .2996-.1199.5992-.2996.8388-.2397.2397-.4793.3595-.8388.3595H27.6212c-.6591 0-1.1384-.5392-1.1384-1.1384v-.0599c0-3.9544-3.2354-7.1899-7.1899-7.1899-3.9544 0-7.1899 3.2355-7.1899 7.1899v.0599c0 .2996-.1198.5992-.2995.8389-.2397.2396-.4794.3595-.8389.3595H3.83467C2.57644 23.9671.17981 22.589.17981 18.7544c0-2.3367.599157-3.2354 1.31815-4.0143.35949-.4194.65907-.719.7789-1.7975.35949-2.9359.89874-6.95021 4.91309-6.95021h.35949c2.57636 0 8.62786 0 10.54516-1.37806C23.2474.899554 32.055.599976 34.6313.599976c8.3283 0 18.8136 3.894524 21.9292 5.871734 2.157 1.37807 4.0743 1.37807 5.2726 1.31815h.3595c6.0515 0 17.4354 2.33674 17.4354 11.08444v3.535c.1199 1.0186-.659 1.6177-1.378 1.6177zm-7.4296-2.2768h6.6507v-3.0557c0-6.9502-9.946-8.80759-15.1587-8.80759h-.3595c-1.3181 0-3.8346.05992-6.5308-1.67764-2.3367-1.49789-12.2827-5.51224-20.6709-5.51224-9.4667 0-14.0203 2.75612-15.1587 3.59494-2.3367 1.67764-7.3696 1.79747-11.86331 1.79747h-.3595c-1.73755 0-2.21688 1.43798-2.6962 4.97296-.23966 1.7975-.83882 2.5165-1.37806 3.0557-.41941.4794-.77891.8389-.77891 2.5165 0 2.5165 1.31815 3.0557 1.67764 3.1156h5.69199c.53925-4.7333 4.55355-8.3882 9.40675-8.3882s8.8675 3.6549 9.4068 8.3882H51.947c.5392-4.7333 4.5536-8.3882 9.4067-8.3882 4.8532 0 8.9275 3.6549 9.4667 8.3882z"/></svg>