<svg xmlns="http://www.w3.org/2000/svg" width="74" height="35" fill="none"><path fill="#10CFC9" d="M54.0547 34.939c-3.5844 0-6.475-2.8906-6.475-6.475 0-3.5844 2.8906-6.475 6.475-6.475 3.5844 0 6.475 2.8906 6.475 6.475 0 3.5844-2.9484 6.475-6.475 6.475zm0-10.7531c-2.3703 0-4.2781 1.9078-4.2781 4.2781 0 2.3703 1.9078 4.2781 4.2781 4.2781 2.3703 0 4.2781-1.9078 4.2781-4.2781-.0578-2.3703-1.9656-4.2781-4.2781-4.2781zM15.5517 34.939c-3.5844 0-6.47504-2.8906-6.47504-6.475 0-3.5844 2.89064-6.475 6.47504-6.475 3.5843 0 6.475 2.8906 6.475 6.475 0 3.5844-2.8907 6.475-6.475 6.475zm0-10.7531c-2.3704 0-4.2782 1.9078-4.2782 4.2781 0 2.3703 1.9078 4.2781 4.2782 4.2781 2.3703 0 4.2781-1.9078 4.2781-4.2781 0-2.3703-1.9078-4.2781-4.2781-4.2781z"/><path fill="#E1251B" d="M68.3344 28.811h-5.4922c-.5781 0-1.0406-.4625-1.0984-.9828-.3469-4.0469-3.8157-7.2266-7.8625-7.2266-4.0469 0-7.5157 3.1797-7.8625 7.2266-.0578.5781-.5203.9828-1.0985.9828H24.3969c-.5781 0-1.0406-.4625-1.0984-.9828-.3469-4.0469-3.8157-7.2266-7.8625-7.2266-3.8157 0-7.05316 2.7172-7.74691 6.475-.05782.3469-.28907.5781-.57813.7516-.28906.1734-.63594.1734-.925.0578-1.04062-.4047-2.02344-.8672-3.06406-1.2719C.000023 25.2266.231273 20.3704.462523 16.4969c.057812-.8093.115625-1.5609.115625-2.1968 0-3.5844 2.139062-7.34223 3.815622-10.40629C6.24377.598495 9.5969.71412 10.175.71412h26.2469c2.6594 0 3.8156.80938 4.0469.925l11.7359 8.38278c9.25.0578 15.3203 1.7344 18.6734 5.1453 1.9657 2.0235 2.8907 4.625 2.8329 7.7469-.0579 2.0235-.6938 3.5844-1.85 4.625-1.3297 1.1563-2.9485 1.2719-3.5266 1.2719zm-4.5094-2.1969H68.3344s1.2141.0578 2.0812-.7515c.6938-.636 1.0407-1.6188 1.0985-3.0063.0578-2.5437-.6359-4.5672-2.1969-6.1859-2.8906-3.0063-8.7875-4.5094-17.4594-4.5094-.2312 0-.4625-.0578-.6359-.2313L39.1391 3.3735s-.8094-.52032-2.7172-.52032H9.94377c-.11562 0-2.42812-.17343-3.64218 2.02344-1.61875 2.89063-3.52657 6.41718-3.52657 9.36558 0 .6938-.05781 1.4454-.11562 2.3125-.17344 2.8329-.40469 7.1688 1.3875 7.9782.57812.289 1.21406.5203 1.79219.8093 1.32968-4.1046 5.20311-6.9375 9.59691-6.9375 4.8562 0 9.0765 3.5266 9.9437 8.2672h18.6156c.8672-4.6828 5.0875-8.2672 9.9438-8.2672 4.8562-.0578 9.0187 3.4688 9.8859 8.2094z"/></svg>