<?xml version="1.0" standalone="no"?>
<!DOCTYPE svg PUBLIC "-//W3C//DTD SVG 20010904//EN"
 "http://www.w3.org/TR/2001/REC-SVG-20010904/DTD/svg10.dtd">
<svg version="1.0" xmlns="http://www.w3.org/2000/svg"
 width="237.000000pt" height="68.000000pt" viewBox="0 0 237.000000 68.000000"
 preserveAspectRatio="xMidYMid meet">

<g transform="translate(0.000000,68.000000) scale(0.100000,-0.100000)"
fill="#000000" stroke="none">
<path d="M835 595 c-94 -16 -349 -96 -338 -105 5 -4 28 -12 53 -19 25 -7 61
-22 80 -33 19 -10 28 -17 19 -15 -150 44 -331 47 -453 6 -71 -23 -187 -88
-194 -107 -2 -6 27 -1 65 12 150 53 192 60 343 60 141 0 148 -1 260 -38 232
-76 373 -95 770 -103 l286 -6 -23 -45 c-13 -25 -23 -62 -22 -81 l1 -36 11 33
c19 50 65 102 111 123 46 21 120 25 163 8 40 -15 102 -77 124 -124 l19 -40 -6
45 c-7 51 -26 93 -58 129 l-21 24 23 -15 c35 -23 68 -73 82 -122 l12 -43 76 4
c43 3 82 6 89 8 16 5 29 95 14 104 -7 5 -8 17 -2 39 11 38 -6 59 -79 97 -97
49 -154 60 -325 60 -139 0 -178 -4 -300 -30 -135 -29 -149 -30 -410 -30 -242
0 -274 2 -298 18 -60 39 -75 131 -26 154 39 19 195 30 300 21 105 -8 209 -36
289 -79 l55 -28 -34 29 c-49 42 -136 86 -221 110 -97 28 -317 36 -435 15z"/>
<path d="M334 291 c-53 -24 -109 -91 -123 -146 -16 -63 -13 -87 6 -45 40 92
109 141 195 141 29 0 65 -4 79 -10 42 -16 100 -72 120 -116 17 -40 18 -40 18
-10 1 42 -41 127 -75 154 -68 53 -148 65 -220 32z"/>
</g>
</svg>
